<svg id="Logo" xmlns="http://www.w3.org/2000/svg" width="292" height="72" viewBox="0 0 292 72">
  <g id="Group_2" data-name="Group 2" transform="translate(-233 -30)">
    <text id="Railway" transform="translate(337 71)" fill="#007eb9" font-size="42" font-family="AmazonEmber-HeavyItalic, Amazon Ember" font-weight="800" font-style="italic"><tspan x="0" y="0">RAILWAY</tspan></text>
    <text id="Book_Train_Tickets" data-name="Book Train Tickets" transform="translate(337 98)" fill="#033333" font-size="14" font-family="AmazonEmber-Light, Amazon Ember" font-weight="300" letter-spacing="0.203em"><tspan x="0" y="0">BOOK TRAIN TICKETS</tspan></text>
  </g>
  <g id="Group_1" data-name="Group 1" transform="translate(-270.627 -345.348)">
    <path id="Path_1" data-name="Path 1" d="M306.646,345.348a36.054,36.054,0,0,0-32.922,21.365,25.784,25.784,0,0,0-1.269,3.354h-.038c-.26.784-.482,1.53-.669,2.313v.038a12.285,12.285,0,0,0-.3,1.266,6.781,6.781,0,0,0-.225,1.269,9.14,9.14,0,0,0-.184,1.006c-.114.669-.187,1.38-.264,2.05a18.671,18.671,0,0,0-.111,2.015c-.038.409-.038.819-.038,1.228v.076c0,.524,0,1.044.038,1.564,0,.486.038.933.073,1.419.038.447.076.857.149,1.3.038.486.114,1.009.187,1.491.076.3.114.635.187.933.149.822.336,1.641.52,2.424.264,1.006.6,1.977.933,2.945a35.979,35.979,0,0,0,49.854,20.21q-4.084.114-8.612,0c-.264-.149-.635-.3-1.009-.52a32.285,32.285,0,0,1-35.273-17.3,22.737,22.737,0,0,1-1.564-3.69,23.024,23.024,0,0,1-.822-2.573,8.387,8.387,0,0,1-.222-1.044c-.149-.6-.264-1.193-.375-1.79-.073-.447-.149-.857-.187-1.342v-.038c-.073-.6-.149-1.155-.184-1.752-.038-.635-.076-1.3-.076-1.939v-.3a11.029,11.029,0,0,1,.038-1.12c0-.857.073-1.713.149-2.57.111-.746.222-1.457.371-2.164a7.4,7.4,0,0,1,.149-.857,4.2,4.2,0,0,1,.149-.635l.336-1.453h.038c.111-.409.222-.822.337-1.193.3-.86.6-1.679.93-2.5a34.369,34.369,0,0,1,2.053-4.027,32.39,32.39,0,0,1,52.65-4.287,26.857,26.857,0,0,1,8.054,6.042A35.982,35.982,0,0,0,306.646,345.348Z" transform="translate(0 0)" fill="#262626"/>
    <path id="Path_2" data-name="Path 2" d="M343.372,395.721a111.083,111.083,0,0,1-31.562,3.5c-5.584-2.879-38.187-18.66-38.187-18.66s-.173-.763-.347-1.873c-.139-.728-.277-1.6-.381-2.5,0-.173-.038-.347-.038-.52,2.327.9,37.566,13.18,37.566,13.18s.832-3.642-7.179-5.653-30.386-8.6-30.386-8.6l.42-10.128,25.735-6.625s.347-3.85-6.42-1.179c-6.76,2.636-18.868,5.862-18.868,5.862a4.277,4.277,0,0,1,.94-2.567l22.44-8.428c.52-.173.971-.347,1.422-.52,0,0,9.365-3.538,12.521,2.15,3.156,5.654,10.891,4.544,13.388,4.544a22.061,22.061,0,0,1,3.434.173s3.677.243-2.393-4.856c3.85,1.769,11.515,5.2,19.041,24.66,2.012,5.549,3.468,9.157,4.093,11.654C349.685,393.536,348.367,394.438,343.372,395.721Z" transform="translate(5.504 11.302)" fill="#ec4115"/>
    <path id="Path_3" data-name="Path 3" d="M317.186,390.647c-2.116.486-5.827-.832-5.827-.832L272.965,375.7l-.069-.277c0-.173-.038-.347-.038-.52,2.327.9,37.566,13.18,37.566,13.18s.832-3.642-7.179-5.653-30.386-8.6-30.386-8.6l.42-10.128,25.735-6.625s.347-3.85-6.42-1.179c-6.76,2.636-18.868,5.862-18.868,5.862a4.277,4.277,0,0,1,.94-2.567l22.44-8.428c.52-.174.971-.347,1.422-.52C308.654,354.055,316.527,387.49,317.186,390.647Z" transform="translate(5.504 12.075)" fill="#e50019"/>
    <path id="Path_4" data-name="Path 4" d="M287.758,366.973s-6.878-14.494-2.14-14.4,19.138.184,21.646,4.644,9.292,12.542,2.511,13.1c-7.062.184-16.725,0-16.725,0S289.527,371.149,287.758,366.973Z" transform="translate(32.893 17.831)" fill="#fff"/>
    <path id="Path_5" data-name="Path 5" d="M285.746,358.2h24.525S299.217,366.466,285.746,358.2Z" transform="translate(37.319 31.716)" fill="#e50019"/>
    <path id="Path_6" data-name="Path 6" d="M286.148,361.23s16.163,4.738,23.131-2.23C308.349,362.531,300.081,370.335,286.148,361.23Z" transform="translate(38.312 33.698)" fill="#e50019"/>
    <path id="Path_7" data-name="Path 7" d="M272.874,366.285l39.071,10.592s-5.761-16.072-7.526-18.861-3.156-6.593-12.913-4.551-18.3,4.825-18.3,4.825l-.1,2.417Z" transform="translate(5.546 18.609)" fill="#262626"/>
    <path id="Path_8" data-name="Path 8" d="M298.959,355.154l-7.974,1.04-.728.1-6.486.832-.728.1-4.544.59-.728.069-4.682.624v-.694s1.908-.485,4.682-1.144c.208-.069.486-.139.728-.208,1.384-.347,2.91-.728,4.544-1.11.243-.069.486-.1.728-.173,1.734-.416,3.5-.867,5.2-1.249.447-.1.867-.208,1.283-.277l.728-.1C296.565,352.8,298.959,355.154,298.959,355.154Z" transform="translate(6.075 19.891)" fill="#fff"/>
    <path id="Path_9" data-name="Path 9" d="M273.083,357.107l25.153-2.369s4.249-.7,5.227,2.019a21.147,21.147,0,0,1,1.044,3.343l-31.424-1.391Z" transform="translate(6.062 22.98)" fill="#fff"/>
    <path id="Path_10" data-name="Path 10" d="M307.355,363.844l-16.371-3.052-.728-.139-6.486-1.214-.728-.139-4.544-.867-.728-.139-4.682-.867V356.11l4.682.486.728.1,4.544.486.728.069,6.486.694.728.069,12.309,1.318a3.148,3.148,0,0,1,3.3,2.324Z" transform="translate(6.075 26.565)" fill="#fff"/>
    <path id="Path_11" data-name="Path 11" d="M278.766,353.45v13.908l-.728-.139V353.554Z" transform="translate(18.293 19.999)" fill="#262626"/>
    <path id="Path_12" data-name="Path 12" d="M276.686,353.92v10.925l-.728-.139V354.093C276.2,354.024,276.444,353.989,276.686,353.92Z" transform="translate(13.159 21.159)" fill="#262626"/>
    <path id="Path_13" data-name="Path 13" d="M275.166,354.29v8.636l-.728-.139V354.5C274.646,354.429,274.924,354.359,275.166,354.29Z" transform="translate(9.407 22.072)" fill="#262626"/>
    <path id="Path_14" data-name="Path 14" d="M343.074,375.3a111.082,111.082,0,0,1-31.562,3.5c-5.584-2.879-38.187-18.66-38.187-18.66s-.173-.763-.347-1.873l.382-.069,38.326,14.567s15.712,3.087,25.839,0c10.128-3.052,10.787-3.85,10.787-3.85C349.386,373.114,348.068,374.016,343.074,375.3Z" transform="translate(5.803 31.724)" fill="#262626"/>
  </g>
</svg>
