<svg xmlns="http://www.w3.org/2000/svg" width="126" height="26" viewBox="0 0 126 26">
  <g id="Group_1045" data-name="Group 1045" transform="translate(-134 -24)">
    <text id="Railway" transform="translate(170 44)" fill="#fff" font-size="20" font-family="AmazonEmber-HeavyItalic, Amazon Ember" font-weight="800" font-style="italic"><tspan x="0" y="0">RAILWAY</tspan></text>
    <g id="Group_1044" data-name="Group 1044" transform="translate(23.314 86.314)">
      <circle id="Ellipse_11" data-name="Ellipse 11" cx="12.5" cy="12.5" r="12.5" transform="translate(110.686 -62.314)" fill="#fff"/>
      <g id="Group_1" data-name="Group 1" transform="translate(111.732 -59.926)">
        <path id="Path_1" data-name="Path 1" d="M279.927,345.348a9.31,9.31,0,0,0-8.5,5.517,6.664,6.664,0,0,0-.328.866h-.01c-.067.2-.124.395-.173.6v.01a3.181,3.181,0,0,0-.077.327,1.751,1.751,0,0,0-.058.328,2.379,2.379,0,0,0-.047.26c-.029.173-.048.356-.068.529a4.811,4.811,0,0,0-.029.52c-.01.106-.01.211-.01.317v.02c0,.135,0,.27.01.4s.01.241.019.366.02.221.038.337.03.261.048.385c.02.077.03.164.048.241.039.212.087.424.134.626.068.26.155.511.241.76a9.29,9.29,0,0,0,12.873,5.219q-1.055.029-2.224,0c-.068-.039-.164-.077-.261-.134a8.336,8.336,0,0,1-9.108-4.468,9.438,9.438,0,0,1-.616-1.617,2.165,2.165,0,0,1-.057-.27c-.038-.154-.068-.308-.1-.462-.019-.116-.039-.221-.048-.347v-.01c-.019-.154-.038-.3-.047-.452s-.02-.337-.02-.5v-.077a2.845,2.845,0,0,1,.01-.289c0-.221.019-.442.039-.664.029-.193.057-.376.1-.559a1.919,1.919,0,0,1,.039-.221,1.079,1.079,0,0,1,.039-.164l.087-.375h.01c.029-.106.057-.212.087-.308.077-.222.154-.434.24-.646a8.888,8.888,0,0,1,.53-1.04,8.363,8.363,0,0,1,13.595-1.107,6.935,6.935,0,0,1,2.08,1.56A9.291,9.291,0,0,0,279.927,345.348Z" transform="translate(-270.627 -345.348)" fill="#262626"/>
        <path id="Path_2" data-name="Path 2" d="M291.065,361.751a28.683,28.683,0,0,1-8.15.9c-1.442-.743-9.86-4.818-9.86-4.818s-.045-.2-.09-.484c-.036-.188-.072-.412-.1-.645,0-.045-.01-.09-.01-.134.6.233,9.7,3.4,9.7,3.4s.215-.94-1.854-1.46-7.846-2.221-7.846-2.221l.108-2.615,6.645-1.711s.09-.994-1.658-.3-4.872,1.514-4.872,1.514a1.1,1.1,0,0,1,.243-.663l5.794-2.176c.134-.045.251-.09.367-.134,0,0,2.418-.913,3.233.555s2.812,1.173,3.457,1.173a5.694,5.694,0,0,1,.887.045s.949.063-.618-1.254c.994.457,2.973,1.343,4.917,6.368.519,1.433.9,2.364,1.057,3.009C292.695,361.187,292.355,361.42,291.065,361.751Z" transform="translate(-270.86 -345.826)" fill="#ec4115"/>
        <path id="Path_3" data-name="Path 3" d="M284.3,360.673a3.611,3.611,0,0,1-1.5-.215l-9.914-3.645-.018-.072c0-.045-.01-.09-.01-.134.6.233,9.7,3.4,9.7,3.4s.215-.94-1.854-1.46-7.846-2.221-7.846-2.221l.108-2.615L279.611,352s.09-.994-1.658-.3-4.872,1.514-4.872,1.514a1.1,1.1,0,0,1,.243-.663l5.794-2.176c.134-.045.251-.09.367-.134C282.1,351.225,284.133,359.858,284.3,360.673Z" transform="translate(-270.86 -345.859)" fill="#e50019"/>
        <path id="Path_4" data-name="Path 4" d="M284.935,356.29s-1.776-3.743-.553-3.718,4.942.047,5.589,1.2,2.4,3.238.648,3.383c-1.823.047-4.319,0-4.319,0A1.224,1.224,0,0,1,284.935,356.29Z" transform="translate(-272.019 -346.102)" fill="#fff"/>
        <path id="Path_5" data-name="Path 5" d="M285.746,358.2h6.333A5.749,5.749,0,0,1,285.746,358.2Z" transform="translate(-272.206 -346.69)" fill="#e50019"/>
        <path id="Path_6" data-name="Path 6" d="M286.148,359.576s4.173,1.223,5.973-.576C291.881,359.912,289.746,361.927,286.148,359.576Z" transform="translate(-272.248 -346.774)" fill="#e50019"/>
        <path id="Path_7" data-name="Path 7" d="M272.874,356.347l10.089,2.735s-1.488-4.15-1.943-4.87-.815-1.7-3.334-1.175-4.726,1.246-4.726,1.246l-.026.624Z" transform="translate(-270.862 -346.135)" fill="#262626"/>
        <path id="Path_8" data-name="Path 8" d="M279.768,353.857l-2.059.269-.188.027-1.675.215-.188.027-1.173.152-.188.018-1.209.161v-.179s.493-.125,1.209-.3c.054-.018.125-.036.188-.054.357-.09.751-.188,1.173-.287.063-.018.125-.027.188-.045.448-.107.9-.224,1.343-.322.116-.027.224-.054.331-.072l.188-.027A2.487,2.487,0,0,1,279.768,353.857Z" transform="translate(-270.884 -346.19)" fill="#fff"/>
        <path id="Path_9" data-name="Path 9" d="M273.083,355.29l6.495-.612s1.1-.18,1.35.521a5.458,5.458,0,0,1,.27.863l-8.114-.359Z" transform="translate(-270.883 -346.32)" fill="#fff"/>
        <path id="Path_10" data-name="Path 10" d="M281.936,358.107l-4.227-.788-.188-.036-1.675-.313-.188-.036-1.173-.224-.188-.036-1.209-.224v-.34l1.209.125.188.027,1.173.125.188.018,1.675.179.188.018,3.178.34a.813.813,0,0,1,.852.6Z" transform="translate(-270.884 -346.472)" fill="#fff"/>
        <path id="Path_11" data-name="Path 11" d="M278.226,353.45v3.591l-.188-.036v-3.529Z" transform="translate(-271.401 -346.194)" fill="#262626"/>
        <path id="Path_12" data-name="Path 12" d="M276.146,353.92v2.821l-.188-.036v-2.74C276.021,353.947,276.083,353.938,276.146,353.92Z" transform="translate(-271.184 -346.243)" fill="#262626"/>
        <path id="Path_13" data-name="Path 13" d="M274.626,354.29v2.23l-.188-.036v-2.14C274.492,354.326,274.563,354.308,274.626,354.29Z" transform="translate(-271.025 -346.282)" fill="#262626"/>
        <path id="Path_14" data-name="Path 14" d="M291.078,362.615a28.684,28.684,0,0,1-8.15.9c-1.442-.743-9.86-4.818-9.86-4.818s-.045-.2-.09-.484l.1-.018,9.9,3.761s4.057.8,6.672,0a11.189,11.189,0,0,0,2.785-.994C292.708,362.051,292.367,362.284,291.078,362.615Z" transform="translate(-270.873 -346.69)" fill="#262626"/>
      </g>
    </g>
  </g>
</svg>
