<svg id="Group_1073" data-name="Group 1073" xmlns="http://www.w3.org/2000/svg" width="12.908" height="13.395" viewBox="0 0 12.908 13.395">
  <g id="Group_184" data-name="Group 184">
    <path id="Path_525" data-name="Path 525" d="M52.2,685.982a1.218,1.218,0,0,0-1.218,1.218v9.417a1.218,1.218,0,0,0,1.218,1.218H62.671a1.218,1.218,0,0,0,1.218-1.218V687.2a1.218,1.218,0,0,0-1.218-1.218h-.426v.771a.934.934,0,1,1-1.867,0v-.771H54.492v.771a.934.934,0,1,1-1.867,0v-.771Zm.771,3.41H61.9a.466.466,0,0,1,.487.441v6.1a.465.465,0,0,1-.487.44H52.97a.465.465,0,0,1-.487-.44v-6.1A.466.466,0,0,1,52.97,689.392Z" transform="translate(-50.981 -684.439)" fill="#007eb9"/>
    <path id="Path_526" data-name="Path 526" d="M63.22,677.57v1.867a.446.446,0,1,0,.893,0V677.57a.446.446,0,1,0-.893,0Z" transform="translate(-61.089 -677.124)" fill="#007eb9"/>
    <path id="Path_527" data-name="Path 527" d="M107.74,677.57v1.867a.446.446,0,1,0,.893,0V677.57a.446.446,0,0,0-.893,0Z" transform="translate(-97.856 -677.124)" fill="#007eb9"/>
  </g>
  <rect id="Rectangle_7" data-name="Rectangle 7" width="2.362" height="2.418" transform="translate(2.356 5.713)" fill="#007eb9"/>
  <rect id="Rectangle_8" data-name="Rectangle 8" width="2.362" height="2.418" transform="translate(5.33 5.713)" fill="#007eb9"/>
  <rect id="Rectangle_9" data-name="Rectangle 9" width="2.362" height="2.418" transform="translate(2.356 8.685)" fill="#007eb9"/>
  <rect id="Rectangle_10" data-name="Rectangle 10" width="2.362" height="2.418" transform="translate(5.33 8.685)" fill="#007eb9"/>
  <rect id="Rectangle_11" data-name="Rectangle 11" width="2.362" height="2.418" transform="translate(8.415 5.713)" fill="#007eb9"/>
  <rect id="Rectangle_12" data-name="Rectangle 12" width="2.362" height="2.418" transform="translate(8.415 8.685)" fill="#007eb9"/>
</svg>
