<svg id="Group_1001" data-name="Group 1001" xmlns="http://www.w3.org/2000/svg" width="10.344" height="10.491" viewBox="0 0 10.344 10.491">
  <path id="Path_535" data-name="Path 535" d="M854.133,694.641a6.375,6.375,0,0,0-.981.095,2.939,2.939,0,0,0-.856.232,3.87,3.87,0,0,0-.779.689,14.946,14.946,0,0,0-1.31,1.687c-.524.755-.986,1.49-1.373,2.183-.347.621-.7,1.3-1.055,2.031a3.619,3.619,0,0,0-.777-.751,1.481,1.481,0,0,0-1.974.049,1.183,1.183,0,0,0-.561.937,1.509,1.509,0,0,0,.492.926,11.6,11.6,0,0,1,1.156,1.459,5.956,5.956,0,0,0,.446.63.918.918,0,0,0,.374.247,2.369,2.369,0,0,0,.73.077,2.233,2.233,0,0,0,.993-.155,1.133,1.133,0,0,0,.449-.442,10.622,10.622,0,0,0,.461-1.039,25.562,25.562,0,0,1,2.15-4.124,16.617,16.617,0,0,1,2.6-3.276,2.408,2.408,0,0,0,.39-.415.694.694,0,0,0,.106-.381.645.645,0,0,0-.188-.465A.658.658,0,0,0,854.133,694.641Z" transform="translate(-844.468 -694.641)" fill="#d2d2d2"/>
</svg>
