<svg id="Group_189" data-name="Group 189" xmlns="http://www.w3.org/2000/svg" width="11.4" height="11.562" viewBox="0 0 11.4 11.562">
  <path id="Path_535" data-name="Path 535" d="M855.12,694.641a7.023,7.023,0,0,0-1.081.1,3.238,3.238,0,0,0-.943.256,4.263,4.263,0,0,0-.859.759,16.493,16.493,0,0,0-1.444,1.859c-.577.832-1.086,1.642-1.513,2.406-.383.685-.773,1.437-1.163,2.239a3.993,3.993,0,0,0-.857-.827,1.921,1.921,0,0,0-1.069-.389,1.9,1.9,0,0,0-1.106.442,1.3,1.3,0,0,0-.618,1.033,1.663,1.663,0,0,0,.542,1.02,12.778,12.778,0,0,1,1.274,1.608,6.566,6.566,0,0,0,.491.694,1.01,1.01,0,0,0,.412.272,2.61,2.61,0,0,0,.8.085,2.459,2.459,0,0,0,1.094-.171,1.249,1.249,0,0,0,.5-.487,11.71,11.71,0,0,0,.509-1.145,28.172,28.172,0,0,1,2.369-4.545,18.316,18.316,0,0,1,2.861-3.611,2.656,2.656,0,0,0,.43-.457.765.765,0,0,0,.117-.42.71.71,0,0,0-.207-.513A.726.726,0,0,0,855.12,694.641Z" transform="translate(-844.468 -694.641)" fill="#4d4e50"/>
</svg>
