<svg id="Profile" xmlns="http://www.w3.org/2000/svg" width="20.165" height="20.199" viewBox="0 0 20.165 20.199">
  <path id="Path_410" data-name="Path 410" d="M133.82,84.728a5.846,5.846,0,0,0-6.008-5.836,5.9,5.9,0,0,0-5.669,5.761,5.837,5.837,0,0,0,2.534,4.887,10.118,10.118,0,0,0-6.759,8.682.8.8,0,0,0,.789.867h0a.781.781,0,0,0,.782-.71,8.532,8.532,0,0,1,8.492-7.812,5.846,5.846,0,0,0,5.839-5.839Zm-5.839,4.26a4.26,4.26,0,1,1,4.26-4.26,4.266,4.266,0,0,1-4.26,4.26Zm3.393,5.365h5.917a.789.789,0,0,1,.789.789h0a.789.789,0,0,1-.789.788h-5.917a.789.789,0,0,1-.789-.788h0A.789.789,0,0,1,131.374,94.353Zm6.707-2.366h0a.789.789,0,0,1-.789.788h-5.917a.789.789,0,0,1-.789-.788h0a.79.79,0,0,1,.789-.789h5.917A.789.789,0,0,1,138.081,91.987Zm-6.707,5.523h5.917a.789.789,0,0,1,.789.789h0a.789.789,0,0,1-.789.789h-5.917a.79.79,0,0,1-.789-.789h0A.79.79,0,0,1,131.374,97.51Zm-.789,0" transform="translate(-117.916 -78.889)" fill="#033333"/>
</svg>
