<svg xmlns="http://www.w3.org/2000/svg" width="24.211" height="24.211" viewBox="0 0 24.211 24.211">
  <g id="Group_1022" data-name="Group 1022" transform="translate(0 12.286) rotate(-45)">
    <path id="Path_1615" data-name="Path 1615" d="M561.1,159.928l1.188-.4h0a1.812,1.812,0,0,0,1.019-.864,1.81,1.81,0,0,0,.125-1.451l-.024-.065-.045-.124-5.824,1.967-.677.229,1.8-3.642,1.2-2.421.049-.132-.145-.072-.025-.012h0c-.046-.023-.093-.042-.14-.062-.011,0-.021-.009-.032-.013a1.828,1.828,0,0,0-2.275.9l-3.138,6.338-.015.031-.213.072a2.773,2.773,0,0,0-.134-1.1,2.81,2.81,0,0,0-.758-1.161h0a3.3,3.3,0,0,0-1.174-.689,4.463,4.463,0,0,0-2.859.032,4.606,4.606,0,0,0-1.859,1.165,3.515,3.515,0,0,0-.951,1.8,2.762,2.762,0,0,0,.859,2.542,3.3,3.3,0,0,0,1.174.692,4.134,4.134,0,0,0,1.346.219,4.752,4.752,0,0,0,1.513-.252,4.829,4.829,0,0,0,1.04-.5l.742-.251-.33.667a4.879,4.879,0,0,0-.632.963,4.469,4.469,0,0,0-.415,2.831,3.327,3.327,0,0,0,.527,1.255,2.759,2.759,0,0,0,2.288,1.193l.118,0a3.515,3.515,0,0,0,1.913-.7,4.607,4.607,0,0,0,1.4-1.686,4.462,4.462,0,0,0,.414-2.829,3.315,3.315,0,0,0-.527-1.256,2.752,2.752,0,0,0-2.124-1.187l.082-.165Zm-6.459.787a.4.4,0,0,1,.114-.177.408.408,0,0,1,.288-.1.4.4,0,0,1,.292.636.415.415,0,0,1-.049.054l.024.027-.005,0-.027-.024a.4.4,0,0,1-.186.089.4.4,0,0,1-.274-.053.409.409,0,0,1-.1-.074.4.4,0,0,1-.091-.189A.237.237,0,0,0,554.641,160.715Zm-1.045,1.019c.149-.242.214-.66.35-.852a.4.4,0,0,1,.189-.12c0,.011,0,.02,0,.031a.162.162,0,0,0,0,.059.92.92,0,0,0,.693.838c-.11.014-.23.034-.192.025a4.537,4.537,0,0,0-.836.3.205.205,0,0,0-.265-.154l-.025.009C553.538,161.824,553.569,161.78,553.6,161.734Zm-1.046.173a4.081,4.081,0,0,1-1.636,1.024,3.914,3.914,0,0,1-2.5.034,2.748,2.748,0,0,1-.98-.576,2.214,2.214,0,0,1-.689-2.04,2.966,2.966,0,0,1,.806-1.517,4.059,4.059,0,0,1,1.635-1.024,4.235,4.235,0,0,1,1.336-.223,3.562,3.562,0,0,1,1.167.19,2.751,2.751,0,0,1,.98.573,2.211,2.211,0,0,1,.689,2.041h0l0,.016A2.971,2.971,0,0,1,552.551,161.906Zm3.79.821h0a2.25,2.25,0,0,1,.841.73,2.766,2.766,0,0,1,.438,1.047,3.911,3.911,0,0,1-.368,2.476,4.071,4.071,0,0,1-1.233,1.484,2.965,2.965,0,0,1-1.612.6,2.214,2.214,0,0,1-1.93-.957,2.76,2.76,0,0,1-.438-1.046,3.906,3.906,0,0,1,.368-2.476,4.069,4.069,0,0,1,1.232-1.484,2.985,2.985,0,0,1,1.586-.595h.028A2.243,2.243,0,0,1,556.34,162.728Zm-1.006-2.722a.882.882,0,0,0-.354-.056c.248-.487.441-1.063.648-1.482l1.549-3.129c.424-.856.805-2.09,1.925-1.971l-3.151,6.364c-.081.162.054.4.253.329l6.716-2.267c-.037,1.052-1.1,1.269-1.973,1.564q-1.544.52-3.089,1.042c-.651.22-1.334.406-1.985.648A.884.884,0,0,0,555.335,160.006Z" transform="translate(-546.155 -152.749)" fill="#033333"/>
    <path id="Path_1616" data-name="Path 1616" d="M553.2,163.184a2.415,2.415,0,0,0-1.268-.577,3.474,3.474,0,0,0-1.653.156,3.361,3.361,0,0,0-1.723,1.268,2.225,2.225,0,0,0-.346.836,1.651,1.651,0,0,0,.516,1.529,2.414,2.414,0,0,0,1.267.578,3.163,3.163,0,0,0,.5.038,3.631,3.631,0,0,0,1.156-.194,3.363,3.363,0,0,0,1.723-1.269,2.209,2.209,0,0,0,.345-.836,1.653,1.653,0,0,0-.516-1.529Zm-.029,1.434a1.7,1.7,0,0,1-.262.627,2.81,2.81,0,0,1-1.439,1.049,2.941,2.941,0,0,1-1.391.134,1.882,1.882,0,0,1-.977-.437,1.1,1.1,0,0,1-.347-1.029,1.671,1.671,0,0,1,.262-.627,2.8,2.8,0,0,1,1.439-1.049,3.041,3.041,0,0,1,.977-.167,2.628,2.628,0,0,1,.413.032h0a1.859,1.859,0,0,1,.977.437,1.1,1.1,0,0,1,.31.467A1.116,1.116,0,0,1,553.17,164.618Z" transform="translate(-547.068 -157.17)" fill="#033333"/>
    <path id="Path_1617" data-name="Path 1617" d="M558.134,173.276a3.507,3.507,0,0,0-.375,1.619,2.424,2.424,0,0,0,.4,1.332,1.646,1.646,0,0,0,1.377.718l.071,0a2.253,2.253,0,0,0,.875-.23,3.356,3.356,0,0,0,1.487-1.538,3.483,3.483,0,0,0,.375-1.617,2.426,2.426,0,0,0-.4-1.332,1.669,1.669,0,0,0-.63-.548h0a1.685,1.685,0,0,0-.817-.169,2.217,2.217,0,0,0-.875.231A3.364,3.364,0,0,0,558.134,173.276Zm2.384-1.214h.051a1.092,1.092,0,0,1,.923.483,1.871,1.871,0,0,1,.3,1.026,2.925,2.925,0,0,1-.318,1.36,2.8,2.8,0,0,1-1.233,1.285,1.68,1.68,0,0,1-.655.175,1.105,1.105,0,0,1-.974-.482,1.871,1.871,0,0,1-.3-1.027,2.935,2.935,0,0,1,.318-1.36,2.8,2.8,0,0,1,1.233-1.285A1.684,1.684,0,0,1,560.519,172.062Z" transform="translate(-551.38 -161.195)" fill="#033333"/>
  </g>
</svg>
