<svg xmlns="http://www.w3.org/2000/svg" width="20.885" height="16.407" viewBox="0 0 20.885 16.407">
  <path id="Path_908" data-name="Path 908" d="M522.082,262.682H507.227a3.018,3.018,0,0,0-3.015,3.015v10.377a3.019,3.019,0,0,0,3.015,3.015h14.855a3.019,3.019,0,0,0,3.015-3.015V265.7A3.019,3.019,0,0,0,522.082,262.682Zm0,1.441a1.572,1.572,0,0,1,.358.043l-6.267,7.111a2.025,2.025,0,0,1-3.037,0l-6.267-7.111a1.571,1.571,0,0,1,.358-.043Zm1.574,11.951a1.576,1.576,0,0,1-1.574,1.574H507.227a1.576,1.576,0,0,1-1.574-1.574V265.7a1.571,1.571,0,0,1,.118-.6l6.284,7.129a3.466,3.466,0,0,0,5.2,0l6.283-7.129a1.562,1.562,0,0,1,.118.6Z" transform="translate(-504.212 -262.682)" fill="#033333"/>
</svg>
