<svg xmlns="http://www.w3.org/2000/svg" width="20" height="20" viewBox="0 0 20 20"><g transform="translate(-667 -245)"><g transform="translate(667 245)" fill="#fff" stroke="#007eb9" stroke-width="1"><circle cx="10" cy="10" r="10" stroke="none"/><circle cx="10" cy="10" r="9.5" fill="none"/></g><g transform="translate(214.559 98.49)"><path d="M316.527,352.2l.021-.033c.007-.012.013-.025.018-.037a.192.192,0,0,0,.01-.021l0-.011a.233.233,0,0,0,.014-.04c0-.011.007-.022.01-.033s0-.026.007-.039,0-.023,0-.034a1.191,1.191,0,0,0,0-.075.244.244,0,0,0-.005-.043.25.25,0,0,0,0-.031c0-.014-.008-.028-.013-.042a.17.17,0,0,0-.01-.032.108.108,0,0,1,0-.015c0-.007-.008-.014-.012-.023s-.01-.02-.015-.031a.32.32,0,0,0-.023-.034.226.226,0,0,0-.02-.028.239.239,0,0,0-.03-.034.089.089,0,0,0-.014-.016l-2.417-2.418a.516.516,0,1,0-.73.73l1.536,1.537h-4.783a.516.516,0,0,0-.517.517.519.519,0,0,0,.517.517h4.783l-1.536,1.536a.517.517,0,0,0,.73.731l2.419-2.419.013-.015a.2.2,0,0,0,.028-.033C316.513,352.219,316.52,352.207,316.527,352.2Z" transform="translate(151.048 -194.549)" fill="#007eb9"/><path d="M6.975,3.223,7,3.19c.007-.012.013-.025.018-.037a.2.2,0,0,0,.01-.021l0-.011a.232.232,0,0,0,.014-.04c0-.011.007-.022.01-.033s0-.026.007-.039,0-.024,0-.034a.216.216,0,0,0,0-.042.218.218,0,0,0,0-.033.245.245,0,0,0-.005-.043.251.251,0,0,0,0-.031c0-.014-.008-.028-.013-.042a.17.17,0,0,0-.01-.032.111.111,0,0,1,0-.015c0-.007-.008-.014-.012-.023S7,2.693,7,2.682a.321.321,0,0,0-.023-.034.226.226,0,0,0-.02-.028.241.241,0,0,0-.03-.034.09.09,0,0,0-.014-.016L4.494.152a.516.516,0,1,0-.73.73L5.3,2.419H.517A.516.516,0,0,0,0,2.935a.519.519,0,0,0,.517.517H5.3L3.764,4.988a.517.517,0,0,0,.73.731L6.913,3.3l.013-.015a.2.2,0,0,0,.028-.033C6.961,3.242,6.968,3.231,6.975,3.223Z" transform="translate(463.504 158.379) rotate(-180)" fill="#007eb9"/></g></g></svg>