<svg xmlns="http://www.w3.org/2000/svg" width="15.346" height="9.636" viewBox="0 0 15.346 9.636">
  <g id="Group_1070" data-name="Group 1070" transform="translate(111.25 -263.75)">
    <path id="Line_13" data-name="Line 13" d="M14.061.321H-.215A.535.535,0,0,1-.75-.215.535.535,0,0,1-.215-.75H14.061a.535.535,0,0,1,.535.535A.535.535,0,0,1,14.061.321Z" transform="translate(-110.5 264.5)" fill="#333"/>
    <path id="Line_14" data-name="Line 14" d="M8.351.321H-.215A.535.535,0,0,1-.75-.215.535.535,0,0,1-.215-.75H8.351a.535.535,0,0,1,.535.535A.535.535,0,0,1,8.351.321Z" transform="translate(-107.645 268.783)" fill="#333"/>
    <path id="Line_15" data-name="Line 15" d="M4.068.321H-.215A.535.535,0,0,1-.75-.215.535.535,0,0,1-.215-.75H4.068A.535.535,0,0,1,4.6-.215.535.535,0,0,1,4.068.321Z" transform="translate(-105.504 273.065)" fill="#333"/>
  </g>
</svg>
