<svg xmlns="http://www.w3.org/2000/svg" width="16.149" height="13.419" viewBox="0 0 16.149 13.419">
  <path id="Path_1835" data-name="Path 1835" d="M325.5,356.346c.016-.026.034-.054.049-.076s.029-.056.041-.084a.463.463,0,0,0,.024-.049l.008-.025a.531.531,0,0,0,.031-.091c.006-.025.015-.05.023-.076s.01-.06.015-.09.005-.054.009-.078a2.815,2.815,0,0,0,0-.171.559.559,0,0,0-.012-.1.588.588,0,0,0-.01-.071c-.009-.033-.017-.065-.029-.1a.388.388,0,0,0-.024-.074.255.255,0,0,1-.01-.035c-.008-.016-.019-.031-.027-.052s-.024-.046-.035-.071a.747.747,0,0,0-.053-.079.515.515,0,0,0-.045-.064.548.548,0,0,0-.068-.078.206.206,0,0,0-.031-.036l-5.526-5.527a1.18,1.18,0,0,0-1.67,1.669l3.512,3.514H310.734a1.179,1.179,0,0,0-1.182,1.181,1.186,1.186,0,0,0,1.182,1.181H321.67l-3.512,3.511a1.181,1.181,0,0,0,1.67,1.671l5.53-5.53c.01-.013.021-.024.03-.035a.462.462,0,0,0,.064-.076C325.468,356.389,325.484,356.363,325.5,356.346Z" transform="translate(325.701 362.395) rotate(180)" fill="#333"/>
</svg>
