<svg xmlns="http://www.w3.org/2000/svg" width="18.463" height="26.802" viewBox="0 0 18.463 26.802">
  <path id="Path_1786" data-name="Path 1786" d="M41.99,55.9,42,51.321a6.052,6.052,0,0,0-12.1-.033l-.009,4.624a9.231,9.231,0,1,0,12.1-.009Zm-10.37-4.61a4.328,4.328,0,1,1,8.656.024l-.007,3.4a8.871,8.871,0,0,0-8.656,0ZM35.944,70.33a7.477,7.477,0,0,1-4.6-13.394l.019-.016A7.348,7.348,0,0,1,40.5,56.9a.928.928,0,0,0,.1.083A7.477,7.477,0,0,1,35.944,70.33Zm0-11.71a2.22,2.22,0,0,0-.9,4.253v3.465h1.8V62.873a2.221,2.221,0,0,0-.9-4.253Z" transform="translate(-26.712 -45.252)" fill="#033333"/>
</svg>
