<svg xmlns="http://www.w3.org/2000/svg" width="19.602" height="20.256" viewBox="0 0 19.602 20.256">
  <path id="Path_1837" data-name="Path 1837" d="M65.419,177.116c-5.4,0-9.8,3.646-9.8,8.128s4.4,8.127,9.8,8.127c.148,0,.291-.013.437-.019l-2.8,2.8a.718.718,0,0,0,.508,1.225.71.71,0,0,0,.506-.211l3.7-3.7a.692.692,0,0,0,.185-.374c4.172-.932,7.257-4.088,7.257-7.838C75.221,180.762,70.824,177.116,65.419,177.116Zm0,14.82c-4.614,0-8.366-3-8.366-6.692s3.752-6.694,8.366-6.694,8.367,3,8.367,6.694S70.033,191.936,65.419,191.936Zm-2.45-8.009a1.317,1.317,0,1,0,1.317,1.317A1.317,1.317,0,0,0,62.97,183.927Zm4.9,0a1.317,1.317,0,1,0,1.317,1.317A1.317,1.317,0,0,0,67.87,183.927Z" transform="translate(-55.619 -177.116)" fill="#033333"/>
</svg>
