<svg xmlns="http://www.w3.org/2000/svg" width="20.472" height="20.657" viewBox="0 0 20.472 20.657">
  <g id="Group_1052" data-name="Group 1052" transform="translate(0.501)">
    <path id="Path_591" data-name="Path 591" d="M842.628,230.061a3.391,3.391,0,0,1,2.279.879l1.022.923a3.4,3.4,0,0,1,.24,4.8l-.605.669a3.4,3.4,0,0,1-1.034.777,11.107,11.107,0,0,0,5.236,4.783,3.4,3.4,0,0,1,.514-.748l.607-.67a3.4,3.4,0,0,1,4.8-.241l1.022.925a3.4,3.4,0,0,1,.241,4.8l-.606.67a3.409,3.409,0,0,1-.821.664,4.382,4.382,0,0,1-2.291.605c-.156,0-.315-.007-.473-.022a16.234,16.234,0,0,1-14.43-13.051,4,4,0,0,1,.935-3.678,3.356,3.356,0,0,1,.239-.3l.606-.67A3.4,3.4,0,0,1,842.628,230.061Zm7.855,14.447-.762-.3a12.336,12.336,0,0,1-6.522-5.985l-.411-.825.883-.265a2.164,2.164,0,0,0,.981-.622l.605-.669a2.171,2.171,0,0,0-.153-3.065l-1.022-.923a2.169,2.169,0,0,0-3.065.153l-.606.67a2.145,2.145,0,0,0-.173.219l-.023.033-.081.09-.03.025a2.8,2.8,0,0,0-.572,2.551,15,15,0,0,0,13.334,12.06,3.338,3.338,0,0,0,2.017-.411l.014-.009a2.186,2.186,0,0,0,.531-.428l.606-.67a2.172,2.172,0,0,0-.154-3.065l-1.022-.925a2.168,2.168,0,0,0-3.064.154l-.606.67a2.165,2.165,0,0,0-.447.763Z" transform="translate(-838.733 -228.24)" fill="#033333"/>
    <path id="Path_592" data-name="Path 592" d="M872.806,222.621a.649.649,0,0,0,.649.648,8.26,8.26,0,0,1,8.25,8.25.649.649,0,0,0,1.3,0,9.559,9.559,0,0,0-9.548-9.548A.649.649,0,0,0,872.806,222.621Z" transform="translate(-863.032 -221.972)" fill="#033333"/>
    <path id="Path_593" data-name="Path 593" d="M872.437,233.823a.649.649,0,0,0,.649.649,5.185,5.185,0,0,1,5.179,5.179.649.649,0,1,0,1.3,0,6.484,6.484,0,0,0-6.477-6.477A.649.649,0,0,0,872.437,233.823Z" transform="translate(-862.767 -229.999)" fill="#033333"/>
  </g>
</svg>
