<svg xmlns="http://www.w3.org/2000/svg" width="21.623" height="21.618" viewBox="0 0 21.623 21.618"><path d="M64.811,125.893a8.6,8.6,0,1,1,6.079-14.679h0a8.6,8.6,0,0,1-6.079,14.679Zm0-15.36a6.762,6.762,0,0,0-4.784,11.544,6.927,6.927,0,0,0,9.567,0,6.761,6.761,0,0,0-4.782-11.544Z" transform="translate(-56.211 -108.7)" fill="#fff"/><g transform="translate(15.033 15.026)"><path d="M70.078,123.482a.914.914,0,0,1-.648-.268l-4.757-4.757a.917.917,0,0,1,1.3-1.3l4.757,4.757a.916.916,0,0,1-.649,1.565Z" transform="translate(-64.406 -116.891)" fill="#fff"/></g></svg>