<svg xmlns="http://www.w3.org/2000/svg" width="26.886" height="25.141" viewBox="0 0 26.886 25.141">
  <path id="Path_1836" data-name="Path 1836" d="M34.967,141.628a1.089,1.089,0,0,1-.407-.077,1.1,1.1,0,0,1-.7-1.028V129.672l-7.39-4.248a1.1,1.1,0,0,1,.254-2.022L51.4,116.531a1.092,1.092,0,0,1,1.359.767l.042,17.631a1.108,1.108,0,0,1-1.516,1.028l-7.675-3.076-7.839,8.4A1.111,1.111,0,0,1,34.967,141.628Zm1.1-11.96v8.053l6.442-6.9a1.112,1.112,0,0,1,1.218-.272l6.862,2.747V121.265Zm-6.212-4.844,5.105,2.933,14.5-8.393Z" transform="translate(-25.917 -116.487)" fill="#fff"/>
</svg>
