<svg id="Group_1053" data-name="Group 1053" xmlns="http://www.w3.org/2000/svg" width="17.5" height="21.475" viewBox="0 0 17.5 21.475">
  <path id="Path_478" data-name="Path 478" d="M719.391,535.97a.13.13,0,0,0-.128.128v18.915a.13.13,0,0,0,.128.128h10.271V553.78a3.166,3.166,0,0,1,3.162-3.162h1.636V536.1a.13.13,0,0,0-.128-.128H719.391m14.037,5.553v7.164H720.3V538.338h13.132v3.184m-14.037-6.7h14.941a1.281,1.281,0,0,1,1.28,1.28v15.671h-2.787a2.013,2.013,0,0,0-2.01,2.01v2.513H719.391a1.282,1.282,0,0,1-1.279-1.28V536.1A1.281,1.281,0,0,1,719.391,534.818Zm12.885,6.553V539.49H721.447v1.881Zm0,3.082v-1.881H721.447v1.881Zm0,3.082v-1.881H721.447v1.881Z" transform="translate(-718.112 -534.818)" fill="#033333"/>
  <path id="Path_479" data-name="Path 479" d="M756.015,585.989v2.032l3.513-3.312h-2.233A1.281,1.281,0,0,0,756.015,585.989Z" transform="translate(-742.582 -567.028)" fill="#033333"/>
</svg>
