<svg id="Group_1015" data-name="Group 1015" xmlns="http://www.w3.org/2000/svg" width="21.444" height="15" viewBox="0 0 21.444 15">
  <g id="Group_960" data-name="Group 960" transform="translate(0)">
    <g id="Group_959" data-name="Group 959">
      <path id="Path_1774" data-name="Path 1774" d="M76.427,219.516H56.687a.852.852,0,1,1,0-1.7h19.74a.852.852,0,1,1,0,1.7Z" transform="translate(-55.835 -217.812)" fill="#fff"/>
    </g>
  </g>
  <g id="Group_962" data-name="Group 962" transform="translate(0 6.648)">
    <g id="Group_961" data-name="Group 961">
      <path id="Path_1775" data-name="Path 1775" d="M76.427,223.418H56.687a.852.852,0,0,1,0-1.7h19.74a.852.852,0,0,1,0,1.7Z" transform="translate(-55.835 -221.714)" fill="#fff"/>
    </g>
  </g>
  <g id="Group_964" data-name="Group 964" transform="translate(0 13.296)">
    <g id="Group_963" data-name="Group 963">
      <path id="Path_1776" data-name="Path 1776" d="M76.427,227.32H56.687a.852.852,0,1,1,0-1.7h19.74a.852.852,0,1,1,0,1.7Z" transform="translate(-55.835 -225.616)" fill="#fff"/>
    </g>
  </g>
</svg>
