<svg id="Group_1023" data-name="Group 1023" xmlns="http://www.w3.org/2000/svg" width="13.309" height="13.309" viewBox="0 0 13.309 13.309">
  <circle id="Ellipse_36" data-name="Ellipse 36" cx="5.807" cy="5.807" r="5.807" transform="translate(0 11.467) rotate(-80.873)" fill="#00d95f"/>
  <path id="Path_1020" data-name="Path 1020" d="M448.32,383.36l.484-1.806a3.342,3.342,0,1,1,1.331,1.32Zm1.906-1.163.114.068a2.714,2.714,0,1,0-.928-.92l.07.115-.271,1.008Z" transform="translate(-444.803 -373.42)" fill="#fff"/>
  <path id="Path_1021" data-name="Path 1021" d="M456.622,384.113a.56.56,0,0,0-.478-.107c-.124.051-.2.245-.284.344a.119.119,0,0,1-.154.034,2.163,2.163,0,0,1-1.08-.925.132.132,0,0,1,.017-.181.728.728,0,0,0,.2-.318.7.7,0,0,0-.088-.377.9.9,0,0,0-.278-.419.381.381,0,0,0-.414.062.84.84,0,0,0-.292.666.949.949,0,0,0,.026.211,1.745,1.745,0,0,0,.2.467,3.742,3.742,0,0,0,.212.322,3.27,3.27,0,0,0,.918.852,2.779,2.779,0,0,0,.572.272,1.272,1.272,0,0,0,.666.105.807.807,0,0,0,.6-.45.389.389,0,0,0,.028-.229C456.964,384.283,456.75,384.189,456.622,384.113Z" transform="translate(-448.463 -377.126)" fill="#fff" fill-rule="evenodd"/>
</svg>
